<svg width="135" height="40" viewBox="0 0 135 40" fill="none" xmlns="http://www.w3.org/2000/svg">
<g clip-path="url(#clip0_9029_24339)">
<path d="M130 0H5C2.23858 0 0 2.23858 0 5V35C0 37.7614 2.23858 40 5 40H130C132.761 40 135 37.7614 135 35V5C135 2.23858 132.761 0 130 0Z" fill="#00271D"/>
<path d="M130 0.8C131.114 0.8 132.182 1.2425 132.97 2.03015C133.758 2.8178 134.2 3.88609 134.2 5V35C134.2 36.1139 133.758 37.1822 132.97 37.9698C132.182 38.7575 131.114 39.2 130 39.2H5C3.88609 39.2 2.8178 38.7575 2.03015 37.9698C1.2425 37.1822 0.8 36.1139 0.8 35V5C0.8 3.88609 1.2425 2.8178 2.03015 2.03015C2.8178 1.2425 3.88609 0.8 5 0.8H130ZM130 0H5C3.67392 0 2.40215 0.526784 1.46447 1.46447C0.526784 2.40215 0 3.67392 0 5L0 35C0.0494968 36.3103 0.59217 37.5535 1.51934 38.4807C2.44651 39.4078 3.68972 39.9505 5 40H130C131.326 40 132.598 39.4732 133.536 38.5355C134.473 37.5979 135 36.3261 135 35V5C135 3.67392 134.473 2.40215 133.536 1.46447C132.598 0.526784 131.326 0 130 0V0Z" fill="#FBFBFA"/>
<path d="M68.1 21.6999C67.2495 21.6999 66.4182 21.9521 65.711 22.4246C65.0039 22.8971 64.4528 23.5687 64.1273 24.3544C63.8018 25.1401 63.7167 26.0047 63.8826 26.8388C64.0485 27.6729 64.4581 28.4391 65.0594 29.0405C65.6608 29.6419 66.427 30.0514 67.2611 30.2173C68.0952 30.3832 68.9598 30.2981 69.7455 29.9726C70.5312 29.6472 71.2028 29.096 71.6753 28.3889C72.1478 27.6818 72.4 26.8504 72.4 25.9999C72.4133 25.4483 72.3177 24.8995 72.1189 24.3849C71.92 23.8702 71.6216 23.3998 71.2409 23.0005C70.8601 22.6011 70.4044 22.2807 69.8998 22.0576C69.3952 21.8345 68.8516 21.7129 68.3 21.6999H68.1ZM68.1 28.4999C67.4635 28.4999 66.853 28.2471 66.4029 27.797C65.9528 27.3469 65.7 26.7365 65.7 26.0999C65.7 25.4634 65.9528 24.853 66.4029 24.4029C66.853 23.9528 67.4635 23.6999 68.1 23.6999C68.7365 23.6999 69.3469 23.9528 69.797 24.4029C70.2471 24.853 70.5 25.4634 70.5 26.0999C70.5134 26.4152 70.4645 26.73 70.3561 27.0263C70.2477 27.3226 70.082 27.5947 69.8684 27.8269C69.6548 28.0591 69.3974 28.2469 69.1112 28.3795C68.8249 28.5122 68.5152 28.5871 68.2 28.5999L68.1 28.4999ZM58.8 21.6999C57.9495 21.6999 57.1182 21.9521 56.411 22.4246C55.7039 22.8971 55.1528 23.5687 54.8273 24.3544C54.5018 25.1401 54.4167 26.0047 54.5826 26.8388C54.7485 27.6729 55.1581 28.4391 55.7594 29.0405C56.3608 29.6419 57.127 30.0514 57.9611 30.2173C58.7952 30.3832 59.6598 30.2981 60.4455 29.9726C61.2312 29.6472 61.9028 29.096 62.3753 28.3889C62.8478 27.6818 63.1 26.8504 63.1 25.9999C63.1133 25.4483 63.0177 24.8995 62.8189 24.3849C62.62 23.8702 62.3216 23.3998 61.9409 23.0005C61.5601 22.6011 61.1044 22.2807 60.5998 22.0576C60.0952 21.8345 59.5516 21.7129 59 21.6999H58.8ZM58.8 28.4999C58.1635 28.4999 57.553 28.2471 57.1029 27.797C56.6528 27.3469 56.4 26.7365 56.4 26.0999C56.4 25.4634 56.6528 24.853 57.1029 24.4029C57.553 23.9528 58.1635 23.6999 58.8 23.6999C59.4365 23.6999 60.0469 23.9528 60.497 24.4029C60.9471 24.853 61.2 25.4634 61.2 26.0999C61.2134 26.4152 61.1645 26.73 61.0561 27.0263C60.9477 27.3226 60.782 27.5947 60.5684 27.8269C60.3548 28.0591 60.0974 28.2469 59.8112 28.3795C59.5249 28.5122 59.2152 28.5871 58.9 28.5999L58.8 28.4999ZM47.7 22.9999V24.7999H52.1C52.05 25.3262 51.8962 25.8374 51.6475 26.3039C51.3987 26.7703 51.06 27.1829 50.6508 27.5177C50.2417 27.8524 49.7702 28.1028 49.2637 28.2542C48.7572 28.4056 48.2257 28.4552 47.7 28.3999C46.4535 28.3999 45.258 27.9048 44.3766 27.0233C43.4952 26.1419 43 24.9465 43 23.6999C42.9731 23.0826 43.0683 22.466 43.28 21.8855C43.4918 21.305 43.8159 20.7719 44.2339 20.3168C44.6518 19.8616 45.1554 19.4934 45.7159 19.2331C46.2763 18.9729 46.8826 18.8257 47.5 18.7999C48.7907 18.7651 50.0449 19.2309 51 20.0999L52.3 18.7999C51.0633 17.618 49.4104 16.9712 47.7 16.9999C45.9495 16.9999 44.2708 17.6953 43.0331 18.933C41.7953 20.1708 41.1 21.8495 41.1 23.5999C41.1 25.3504 41.7953 27.0291 43.0331 28.2668C44.2708 29.5046 45.9495 30.1999 47.7 30.1999C48.565 30.239 49.4289 30.0994 50.2375 29.7897C51.0462 29.48 51.7823 29.0069 52.4 28.3999C53.3722 27.2164 53.9025 25.7316 53.9 24.1999C53.9161 23.7973 53.8825 23.3943 53.8 22.9999H47.7ZM93.1 24.3999C92.8219 23.6328 92.3213 22.9661 91.6622 22.4851C91.003 22.0041 90.2154 21.7307 89.4 21.6999C88.3391 21.6999 87.3217 22.1214 86.5715 22.8715C85.8214 23.6217 85.4 24.6391 85.4 25.6999V25.9999C85.3867 26.5384 85.4796 27.0742 85.6735 27.5767C85.8673 28.0793 86.1583 28.5387 86.5298 28.9287C86.9012 29.3188 87.3459 29.6318 87.8384 29.8499C88.3309 30.068 88.8615 30.187 89.4 30.1999H89.6C90.3087 30.1966 91.0061 30.0221 91.6329 29.6913C92.2597 29.3605 92.7973 28.8832 93.2 28.2999L91.7 27.3999C91.4622 27.7366 91.1478 28.012 90.7826 28.2032C90.4175 28.3945 90.0121 28.4962 89.6 28.4999C89.1876 28.5075 88.7815 28.399 88.4279 28.1868C88.0742 27.9746 87.7874 27.6673 87.6 27.2999L93.2 24.8999L93.1 24.3999ZM87.3 25.7999C87.2725 25.5108 87.3025 25.2191 87.3883 24.9416C87.4742 24.6642 87.6141 24.4064 87.8 24.1833C87.9859 23.9602 88.2142 23.7761 88.4717 23.6416C88.7291 23.5072 89.0106 23.425 89.3 23.3999H89.5C89.8248 23.3811 90.1483 23.4559 90.4319 23.6154C90.7155 23.7749 90.9474 24.0125 91.1 24.2999L87.3 25.7999ZM82.6 29.9999H84.5V17.4999H82.6V29.9999ZM79.6 22.6999H79.5C78.9255 22.0919 78.1358 21.7329 77.3 21.6999C76.7484 21.7129 76.2047 21.8345 75.7001 22.0576C75.1955 22.2807 74.7398 22.6011 74.3591 23.0005C73.9783 23.3998 73.68 23.8702 73.4811 24.3849C73.2822 24.8995 73.1867 25.4483 73.2 25.9999C73.1867 26.5384 73.2796 27.0742 73.4735 27.5767C73.6673 28.0793 73.9583 28.5387 74.3298 28.9287C74.7012 29.3188 75.1459 29.6318 75.6384 29.8499C76.1309 30.068 76.6615 30.187 77.2 30.1999H77.3C77.7079 30.202 78.1121 30.1236 78.4897 29.9692C78.8672 29.8147 79.2105 29.5873 79.5 29.2999H79.6V29.8999C79.6422 30.1892 79.6263 30.484 79.5532 30.7671C79.4802 31.0502 79.3515 31.3159 79.1746 31.5486C78.9977 31.7814 78.7762 31.9766 78.523 32.1227C78.2698 32.2689 77.99 32.3631 77.7 32.3999H77.3C76.8401 32.3886 76.3941 32.2396 76.0198 31.9722C75.6454 31.7048 75.3599 31.3313 75.2 30.8999L73.5 31.4999C73.8158 32.2452 74.3453 32.8803 75.0215 33.3252C75.6977 33.7701 76.4905 34.0049 77.3 33.9999C79.5 33.9999 81.3 32.7999 81.3 29.5999V21.9999H79.6V22.6999ZM77.4 28.4999C76.79 28.4999 76.205 28.2576 75.7736 27.8263C75.3423 27.395 75.1 26.8099 75.1 26.1999V25.9999C75.1 25.3899 75.3423 24.8049 75.7736 24.3736C76.205 23.9423 76.79 23.6999 77.4 23.6999C78.01 23.6999 78.595 23.9423 79.0263 24.3736C79.4577 24.8049 79.7 25.3899 79.7 25.9999C79.7274 26.3022 79.6948 26.6069 79.6039 26.8965C79.513 27.1861 79.3657 27.4548 79.1705 27.6872C78.9753 27.9196 78.736 28.111 78.4665 28.2505C78.1969 28.39 77.9024 28.4748 77.6 28.4999H77.4ZM101.8 17.4999H97.3V29.9999H99.2V25.1999H101.8C102.818 25.3471 103.853 25.0968 104.691 24.501C105.529 23.9051 106.105 23.0095 106.3 21.9999C106.385 21.487 106.367 20.9623 106.246 20.4565C106.126 19.9508 105.905 19.4743 105.598 19.055C105.29 18.6358 104.902 18.2822 104.456 18.0151C104.01 17.7481 103.515 17.5729 103 17.4999C102.606 17.3983 102.194 17.3983 101.8 17.4999ZM101.9 23.4999H99.2V19.1999H101.9C102.47 19.3201 102.969 19.6613 103.287 20.1486C103.606 20.636 103.718 21.2298 103.6 21.7999C103.501 22.2125 103.29 22.5897 102.99 22.8897C102.69 23.1898 102.313 23.401 101.9 23.4999ZM113.4 21.6999C112.725 21.6643 112.055 21.8247 111.469 22.1619C110.883 22.499 110.408 22.9985 110.1 23.5999L111.7 24.2999C111.859 23.9958 112.107 23.747 112.41 23.5864C112.714 23.4257 113.059 23.3607 113.4 23.3999C113.637 23.3722 113.876 23.3916 114.105 23.4573C114.334 23.5229 114.548 23.6333 114.734 23.7821C114.92 23.9309 115.075 24.1152 115.189 24.3243C115.303 24.5333 115.375 24.763 115.4 24.9999C114.78 24.6841 114.096 24.5131 113.4 24.4999C111.6 24.4999 109.8 25.4999 109.8 27.3999C109.825 27.7811 109.926 28.1535 110.095 28.4957C110.265 28.8379 110.501 29.1432 110.789 29.3941C111.077 29.645 111.412 29.8365 111.774 29.9576C112.136 30.0788 112.519 30.1271 112.9 30.0999C113.373 30.1487 113.85 30.0617 114.275 29.8492C114.7 29.6367 115.055 29.3074 115.3 28.8999H115.4V29.7999H117.2V25.1999C117.2 22.8999 115.5 21.6999 113.4 21.6999ZM113.2 28.4999C112.5 28.4999 111.7 28.1999 111.7 27.4999C111.7 26.7999 112.8 26.1999 113.7 26.1999C114.292 26.1782 114.88 26.3164 115.4 26.5999C115.327 27.13 115.063 27.6153 114.658 27.965C114.254 28.3148 113.735 28.5049 113.2 28.4999ZM123.7 21.9999L121.6 27.3999H121.5L119.3 21.9999H117.3L120.6 29.4999L118.7 33.7999H120.7L125.8 21.9999H123.7ZM106.9 29.9999H108.8V17.4999H106.9V29.9999Z" fill="#FBFBFA"/>
<path d="M10.4 7.50002C10.1186 7.91106 9.97821 8.40235 10 8.90002V31C9.97821 31.4977 10.1186 31.989 10.4 32.4H10.5L22.9 20.1V19.9L10.5 7.40002L10.4 7.50002Z" fill="url(#paint0_linear_9029_24339)"/>
<path d="M27 24.2L22.9 20.1V19.9L27 15.7H27.1L32 18.5C33.4 19.3 33.4 20.6 32 21.4L27.1 24.2H27Z" fill="url(#paint1_linear_9029_24339)"/>
<path d="M27.1 24.2L22.9 20L10.4 32.4C10.6671 32.6886 11.0368 32.8608 11.4296 32.8795C11.8223 32.8982 12.2067 32.7619 12.5 32.5L27.1 24.2Z" fill="url(#paint2_linear_9029_24339)"/>
<path d="M27.1 15.7L12.5 7.39999C12.1837 7.19449 11.8107 7.09359 11.4339 7.11154C11.0571 7.12948 10.6954 7.26536 10.4 7.49999L22.9 20L27.1 15.7Z" fill="url(#paint3_linear_9029_24339)"/>
<path opacity="0.2" d="M27 24.1L12.5 32.3C12.2201 32.5262 11.8757 32.6577 11.5163 32.6757C11.1569 32.6937 10.801 32.5971 10.5 32.4C10.775 32.646 11.131 32.7819 11.5 32.7819C11.869 32.7819 12.225 32.646 12.5 32.4L27.1 24.1H27Z" fill="#00271D"/>
<path opacity="0.12" d="M10.4 32.3C10.1186 31.889 9.97821 31.3977 10 30.9C9.97821 31.3977 10.1186 31.889 10.4 32.3ZM32 21.3L27 24.1H27.1L32 21.4C32.7 21 33.1 20.5 33.1 20C32.8772 20.537 32.4928 20.9914 32 21.3Z" fill="#00271D"/>
<path opacity="0.25" d="M12.5 7.60003L32 18.7C32.264 18.8279 32.4982 19.0096 32.6877 19.2335C32.8771 19.4574 33.0176 19.7185 33.1 20C33.0606 19.6767 32.9387 19.3689 32.7461 19.1062C32.5535 18.8435 32.2966 18.6348 32 18.5L12.5 7.40003C11.1 6.60003 10 7.30003 10 8.90003V9.10003C10 7.50003 11.1 6.80003 12.5 7.60003Z" fill="#FBFBFA"/>
<path d="M46.2 12.2C45.9118 12.4902 45.5691 12.7206 45.1915 12.8778C44.8139 13.035 44.409 13.1159 44 13.1159C43.591 13.1159 43.186 13.035 42.8084 12.8778C42.4308 12.7206 42.0881 12.4902 41.8 12.2C41.5126 11.9105 41.2852 11.5672 41.1307 11.1897C40.9763 10.8122 40.8979 10.4079 40.9 9.99998C40.8761 9.376 41.0413 8.75937 41.3739 8.23085C41.7064 7.70233 42.1908 7.28655 42.7636 7.03797C43.3364 6.78939 43.971 6.71959 44.5841 6.83771C45.1973 6.95584 45.7605 7.25638 46.2 7.69998C46.4949 8.00461 46.7263 8.36481 46.8808 8.75965C47.0353 9.15449 47.1098 9.5761 47.1 9.99998C47.1021 10.4079 47.0236 10.8122 46.8692 11.1897C46.7148 11.5672 46.4873 11.9105 46.2 12.2ZM42.4 11.7C42.8265 12.126 43.3976 12.3759 44 12.4C44.4666 12.3581 44.9121 12.1858 45.2857 11.9029C45.6592 11.62 45.9457 11.2379 46.1125 10.8C46.2793 10.3621 46.3197 9.8862 46.2291 9.42649C46.1385 8.96678 45.9205 8.54178 45.6 8.19998C45.1599 7.80642 44.5903 7.58884 44 7.58884C43.4096 7.58884 42.84 7.80642 42.4 8.19998C42.165 8.43517 41.9814 8.71661 41.8609 9.02646C41.7404 9.33632 41.6856 9.66783 41.7 9.99998C41.6871 10.3171 41.743 10.6332 41.8639 10.9266C41.9847 11.22 42.1676 11.4839 42.4 11.7ZM48.2 13V6.99998H49.1L52 11.6H52.1V6.99998H52.9V13H52L49 8.09998H48.9V13H48.2ZM56.2 13H55.5V7.69998H53.8V6.99998H57.9V7.69998H56.2V13ZM58.9 13V6.99998H60.7C61.1032 6.95968 61.5103 7.01067 61.8912 7.14916C62.272 7.28764 62.6168 7.51008 62.9 7.79998C63.1873 8.08945 63.4148 8.43277 63.5692 8.81029C63.7236 9.18781 63.8021 9.5921 63.8 9.99998C63.8126 10.3945 63.7385 10.787 63.583 11.1499C63.4275 11.5127 63.1944 11.837 62.9 12.1C62.6105 12.3874 62.2672 12.6148 61.8896 12.7692C61.5121 12.9237 61.1078 13.0021 60.7 13H58.9ZM59.6 12.2H60.7C61.3186 12.2007 61.9188 11.9888 62.4 11.6C62.798 11.1635 63.0129 10.5906 63 9.99998C63.0275 9.72397 63.0001 9.44524 62.9193 9.17989C62.8386 8.91453 62.706 8.6678 62.5294 8.45395C62.3527 8.2401 62.1354 8.06337 61.8901 7.93396C61.6448 7.80455 61.3762 7.72503 61.1 7.69998H59.6V12.2ZM68.3 7.69998H65.6V9.59998H68.1V10.3H65.6V12.2H68.3V13H64.8V6.99998H68.3V7.69998ZM74 6.99998L71.8 9.59998L74.1 12.9H73.2L71.2 10.1L70.3 11.1V12.9H69.5V6.89998H70.3V9.99998L73 6.99998H74ZM76.9 13V6.99998H77.7V9.49998H80.7V6.99998H81.5V13H80.7V10.3H77.7V13H76.9ZM86.4 7.69998H83.6V9.59998H86.1V10.3H83.6V12.2H86.4V13H82.9V6.99998H86.4V7.69998ZM89.6 13H88.8V7.69998H87.2V6.99998H91.3V7.69998H89.6V13ZM99.1 12.2C98.8118 12.4902 98.4691 12.7206 98.0915 12.8778C97.7139 13.035 97.309 13.1159 96.9 13.1159C96.491 13.1159 96.086 13.035 95.7084 12.8778C95.3308 12.7206 94.9881 12.4902 94.7 12.2C94.4126 11.9105 94.1852 11.5672 94.0307 11.1897C93.8763 10.8122 93.7979 10.4079 93.8 9.99998C93.7761 9.376 93.9413 8.75937 94.2739 8.23085C94.6064 7.70233 95.0908 7.28655 95.6636 7.03797C96.2364 6.78939 96.871 6.71959 97.4841 6.83771C98.0973 6.95584 98.6605 7.25638 99.1 7.69998C99.3949 8.00461 99.6263 8.36481 99.7808 8.75965C99.9353 9.15449 100.01 9.5761 100 9.99998C100.002 10.4079 99.9236 10.8122 99.7692 11.1897C99.6148 11.5672 99.3873 11.9105 99.1 12.2ZM95.3 11.7C95.5056 11.9179 95.7536 12.0915 96.0287 12.2102C96.3039 12.3288 96.6003 12.39 96.9 12.39C97.1996 12.39 97.4961 12.3288 97.7712 12.2102C98.0463 12.0915 98.2943 11.9179 98.5 11.7C98.7323 11.4839 98.9152 11.22 99.0361 10.9266C99.1569 10.6332 99.2128 10.3171 99.2 9.99998C99.2143 9.66783 99.1595 9.33632 99.039 9.02646C98.9185 8.71661 98.735 8.43517 98.5 8.19998C98.0599 7.80642 97.4903 7.58884 96.9 7.58884C96.3096 7.58884 95.74 7.80642 95.3 8.19998C95.065 8.43517 94.8814 8.71661 94.7609 9.02646C94.6404 9.33632 94.5856 9.66783 94.6 9.99998C94.5871 10.3171 94.643 10.6332 94.7639 10.9266C94.8847 11.22 95.0676 11.4839 95.3 11.7ZM101.8 13H101.1V6.99998H103.1C103.581 6.99608 104.046 7.17476 104.4 7.49998C104.594 7.65519 104.749 7.85347 104.853 8.07912C104.958 8.30477 105.008 8.55158 105 8.79998C105.008 9.03424 104.958 9.26687 104.853 9.47654C104.748 9.6862 104.592 9.86618 104.4 9.99998C104.046 10.3252 103.581 10.5039 103.1 10.5H101.8V13ZM101.8 9.79998H103.1C103.247 9.80586 103.393 9.78235 103.53 9.73083C103.668 9.67931 103.793 9.60082 103.9 9.49998C103.998 9.41233 104.076 9.30422 104.128 9.18328C104.179 9.06233 104.204 8.9315 104.2 8.79998C104.214 8.66854 104.201 8.53567 104.164 8.40904C104.126 8.28242 104.063 8.16455 103.979 8.06227C103.896 7.95998 103.793 7.87529 103.676 7.81311C103.559 7.75092 103.432 7.71247 103.3 7.69998H101.8V9.79998Z" fill="#FBFBFA"/>
</g>
<rect x="1.5" y="1.5" width="132" height="37" rx="6.5" stroke="#00271D" stroke-width="3"/>
<defs>
<linearGradient id="paint0_linear_9029_24339" x1="21.78" y1="8.67002" x2="5" y2="25.45" gradientUnits="userSpaceOnUse">
<stop stop-color="#00A0FF"/>
<stop offset="0.01" stop-color="#00A1FF"/>
<stop offset="0.26" stop-color="#00BEFF"/>
<stop offset="0.51" stop-color="#00D2FF"/>
<stop offset="0.76" stop-color="#00DFFF"/>
<stop offset="1" stop-color="#00E3FF"/>
</linearGradient>
<linearGradient id="paint1_linear_9029_24339" x1="33.83" y1="19.95" x2="9.64002" y2="19.95" gradientUnits="userSpaceOnUse">
<stop stop-color="#FFE000"/>
<stop offset="0.41" stop-color="#FFBD00"/>
<stop offset="0.78" stop-color="#FFA500"/>
<stop offset="1" stop-color="#FF9C00"/>
</linearGradient>
<linearGradient id="paint2_linear_9029_24339" x1="24.81" y1="22.24" x2="2.05002" y2="45" gradientUnits="userSpaceOnUse">
<stop stop-color="#FF3A44"/>
<stop offset="1" stop-color="#C31162"/>
</linearGradient>
<linearGradient id="paint3_linear_9029_24339" x1="7.30002" y1="0.139988" x2="17.46" y2="10.31" gradientUnits="userSpaceOnUse">
<stop stop-color="#32A071"/>
<stop offset="0.07" stop-color="#2DA771"/>
<stop offset="0.48" stop-color="#15CF74"/>
<stop offset="0.8" stop-color="#06E775"/>
<stop offset="1" stop-color="#00F076"/>
</linearGradient>
<clipPath id="clip0_9029_24339">
<rect width="135" height="40" rx="8" fill="white"/>
</clipPath>
</defs>
</svg>
