<svg width="120" height="40" viewBox="0 0 120 40" fill="none" xmlns="http://www.w3.org/2000/svg">
<g clip-path="url(#clip0_9029_24314)">
<path d="M110.4 0H7.5L5.5 0.2C4.8413 0.308379 4.20148 0.510426 3.6 0.8C3.00428 1.10925 2.46368 1.5147 2 2C1.5147 2.46368 1.10925 3.00428 0.8 3.6C0.510426 4.20148 0.308379 4.8413 0.2 5.5C0.088692 6.16145 0.0218753 6.82961 0 7.5L0 32.5C0.0172439 33.1707 0.0840931 33.8392 0.2 34.5C0.308379 35.1587 0.510426 35.7985 0.8 36.4C1.10925 36.9957 1.5147 37.5363 2 38C2.46368 38.4853 3.00428 38.8908 3.6 39.2C4.20148 39.4896 4.8413 39.6916 5.5 39.8L7.5 40H112.5L114.5 39.8C115.159 39.6916 115.799 39.4896 116.4 39.2C117.58 38.5511 118.551 37.58 119.2 36.4C119.49 35.7985 119.692 35.1587 119.8 34.5C119.916 33.8392 119.983 33.1707 120 32.5V7.5C119.978 6.82961 119.911 6.16145 119.8 5.5C119.692 4.8413 119.49 4.20148 119.2 3.6C118.592 2.38998 117.61 1.40813 116.4 0.8C115.799 0.510426 115.159 0.308379 114.5 0.2L112.5 0H110.4V0Z" fill="#FBFBFA"/>
<path d="M8.50002 39.1H5.70002C5.09427 38.9761 4.51745 38.7385 4.00002 38.4C3.49455 38.1247 3.02443 37.7889 2.60002 37.4C2.21117 36.9756 1.87538 36.5055 1.60002 36C1.3293 35.4693 1.15974 34.8928 1.10002 34.3C0.983994 33.7066 0.917101 33.1045 0.900024 32.5V7.50004C0.917101 6.89557 0.983994 6.29352 1.10002 5.70004C1.15974 5.10726 1.3293 4.53077 1.60002 4.00004C1.87538 3.49457 2.21117 3.02445 2.60002 2.60004C3.02443 2.21119 3.49455 1.87539 4.00002 1.60004C4.51253 1.28604 5.09912 1.11352 5.70002 1.10004C6.31795 0.928808 6.95999 0.861225 7.60002 0.900042H112.4C113.04 0.861225 113.682 0.928808 114.3 1.10004C114.901 1.11352 115.488 1.28604 116 1.60004C117.029 2.13251 117.868 2.97103 118.4 4.00004C118.671 4.53077 118.84 5.10726 118.9 5.70004C119.021 6.32645 119.088 6.96214 119.1 7.60004V32.5C119.083 33.1045 119.016 33.7066 118.9 34.3C118.84 34.8928 118.671 35.4693 118.4 36C118.125 36.5055 117.789 36.9756 117.4 37.4C116.976 37.7889 116.506 38.1247 116 38.4C115.475 38.7035 114.899 38.9069 114.3 39H8.50002V39.1Z" fill="#00271D"/>
<path d="M24.8 20.2999C24.8459 19.4614 25.0867 18.6452 25.5034 17.9161C25.92 17.187 26.5009 16.5652 27.2 16.0999C26.7506 15.4546 26.1526 14.9269 25.4564 14.5614C24.7602 14.1959 23.9863 14.0033 23.2 13.9999C21.5 13.7999 19.9 14.9999 19 14.9999C18.1 14.9999 16.8 13.9999 15.4 13.9999C14.4701 14.0306 13.5647 14.3055 12.7748 14.797C11.9849 15.2885 11.3383 15.9793 10.9 16.7999C8.99996 20.0999 10.4 24.9999 12.3 27.6999C14.2 30.3999 14.3 30.4999 15.7 30.4999C17.1 30.4999 17.6 29.5999 19.3 29.5999C21 29.5999 21.5 30.4999 22.9 30.4999C24.3 30.4999 25.3 29.0999 26.2 27.7999C26.8701 26.8431 27.4083 25.8004 27.8 24.6999C26.9214 24.3446 26.1677 23.7371 25.6338 22.9541C25.0999 22.1711 24.8098 21.2475 24.8 20.2999Z" fill="#FBFBFA"/>
<path d="M22.0999 12.2C22.906 11.2198 23.3003 9.96504 23.1999 8.69995C21.9611 8.85581 20.8225 9.46068 19.9999 10.4C19.6019 10.8464 19.2991 11.3692 19.1099 11.9366C18.9208 12.504 18.8493 13.104 18.8999 13.7C19.5149 13.7278 20.1275 13.6059 20.6849 13.3446C21.2423 13.0833 21.7279 12.6905 22.0999 12.2Z" fill="#FBFBFA"/>
<path d="M42.4 27.0999H37.7L36.5 30.4999H34.5L39 18.0999H41.1L45.6 30.4999H43.6L42.4 27.0999ZM38.2 25.5999H41.9L40.1 20.0999H40L38.2 25.5999ZM55.3 25.9999C55.3 28.7999 53.8 30.5999 51.5 30.5999C50.9273 30.6403 50.3555 30.5098 49.8571 30.225C49.3586 29.9402 48.9559 29.5138 48.7 28.9999H48.6V33.4999H46.8V21.3999H48.6V22.8999C48.9069 22.4081 49.3344 22.0029 49.842 21.7229C50.3496 21.4429 50.9203 21.2973 51.5 21.2999C53.8 21.2999 55.3 23.1999 55.3 25.9999ZM53.4 25.9999C53.4 24.0999 52.4 22.8999 51 22.8999C49.6 22.8999 48.6 24.1999 48.6 25.9999C48.6 27.7999 49.6 28.9999 51 28.9999C52.4 28.9999 53.4 27.7999 53.4 25.9999ZM65.3 25.9999C65.3 28.7999 63.8 30.5999 61.5 30.5999C60.9273 30.6403 60.3555 30.5098 59.8571 30.225C59.3586 29.9402 58.9559 29.5138 58.7 28.9999H58.6V33.4999H56.8V21.3999H58.6V22.8999C58.9069 22.4081 59.3344 22.0029 59.842 21.7229C60.3496 21.4429 60.9203 21.2973 61.5 21.2999C63.8 21.2999 65.3 23.1999 65.3 25.9999ZM63.4 25.9999C63.4 24.0999 62.4 22.8999 61 22.8999C59.6 22.8999 58.6 24.1999 58.6 25.9999C58.6 27.7999 59.6 28.9999 61 28.9999C62.4 28.9999 63.4 27.7999 63.4 25.9999ZM71.9 26.9999C72 28.2999 73.2 29.0999 74.9 29.0999C76.6 29.0999 77.6 28.2999 77.6 27.1999C77.6 26.0999 76.9 25.5999 75.3 25.1999L73.7 24.7999C71.4 24.2999 70.3 23.1999 70.3 21.4999C70.3 19.7999 72.2 17.8999 74.9 17.8999C77.6 17.8999 79.3 19.2999 79.4 21.4999H77.5C77.4 20.1999 76.3 19.4999 74.8 19.4999C73.3 19.4999 72.3 20.2999 72.3 21.3999C72.3 22.4999 73 22.7999 74.6 23.0999L75.9 23.4999C78.5 24.0999 79.6 25.0999 79.6 26.8999C79.6 28.6999 77.7 30.6999 74.8 30.6999C71.9 30.6999 70.1 29.2999 70 26.9999H71.9ZM83.6 19.2999V21.3999H85.3V22.8999H83.6V27.8999C83.6 28.6999 83.9 28.9999 84.7 28.9999H85.3V30.4999C84.9685 30.5492 84.6315 30.5492 84.3 30.4999C82.4 30.4999 81.7 29.8999 81.7 28.0999V22.8999H80.4V21.3999H81.7V19.2999H83.6ZM86.3 25.9999C86.3 23.0999 88 21.2999 90.6 21.2999C93.2 21.2999 94.9 23.0999 94.9 25.9999C94.9 28.8999 93.3 30.5999 90.6 30.5999C87.9 30.5999 86.3 28.7999 86.3 25.9999ZM93 25.9999C93 23.9999 92.1 22.8999 90.6 22.8999C89.1 22.8999 88.2 23.9999 88.2 25.9999C88.2 27.9999 89.1 29.0999 90.6 29.0999C92.1 29.0999 93 27.8999 93 25.9999ZM96.5 21.3999H98.2V22.9999H98.3C98.415 22.5066 98.6966 22.068 99.0974 21.7583C99.4982 21.4486 99.9936 21.2867 100.5 21.2999H101.1V23.0999L100.3 22.8999C99.8025 22.8974 99.3219 23.0805 98.952 23.4133C98.5822 23.7461 98.3498 24.2049 98.3 24.6999V30.3999H96.5V21.3999ZM109.7 27.7999C109.489 28.6541 108.981 29.4052 108.266 29.9183C107.551 30.4315 106.677 30.6731 105.8 30.5999C103.1 30.5999 101.5 28.7999 101.5 25.9999C101.5 23.1999 103.1 21.2999 105.7 21.2999C108.3 21.2999 109.8 23.0999 109.8 25.7999V26.3999H103.4C103.343 27.0212 103.531 27.6402 103.923 28.1255C104.315 28.6109 104.881 28.9245 105.5 28.9999H105.8C106.245 29.0496 106.694 28.9485 107.075 28.7128C107.455 28.4771 107.746 28.1204 107.9 27.6999L109.7 27.7999ZM103.4 25.0999H107.9C107.927 24.816 107.897 24.5295 107.81 24.2579C107.723 23.9863 107.582 23.7352 107.394 23.52C107.207 23.3048 106.978 23.1299 106.721 23.0061C106.464 22.8823 106.185 22.8122 105.9 22.7999H105.7C105.09 22.7999 104.505 23.0422 104.074 23.4736C103.642 23.9049 103.4 24.4899 103.4 25.0999Z" fill="#FBFBFA"/>
<path d="M37.9001 8.70004C38.2548 8.67278 38.6115 8.71592 38.9495 8.82696C39.2876 8.93801 39.6003 9.11477 39.8698 9.3471C40.1393 9.57942 40.3602 9.86273 40.5199 10.1807C40.6795 10.4987 40.7747 10.8451 40.8 11.2C40.8063 11.3722 40.7721 11.5435 40.7001 11.7C40.7001 13.6 39.7001 14.7 37.9001 14.7H35.8V8.70004H37.9001ZM36.7001 13.9H37.8C38.0496 13.9135 38.2994 13.8776 38.5351 13.7944C38.7708 13.7112 38.9878 13.5823 39.1736 13.4151C39.3594 13.2479 39.5103 13.0456 39.6178 12.82C39.7253 12.5943 39.7873 12.3497 39.8 12.1V11.7C39.8575 11.2109 39.7229 10.7185 39.4244 10.3268C39.1259 9.93499 38.6869 9.67444 38.2001 9.60004H36.7001V13.9ZM41.8 12.4C41.7725 12.124 41.7999 11.8453 41.8807 11.5799C41.9614 11.3146 42.094 11.0679 42.2706 10.854C42.4473 10.6402 42.6646 10.4634 42.9099 10.334C43.1553 10.2046 43.4238 10.1251 43.7001 10.1C44.2635 10.0671 44.8195 10.2425 45.262 10.5928C45.7046 10.9432 46.0028 11.444 46.1 12V12.4C46.1275 12.6892 46.0975 12.9809 46.0117 13.2584C45.9259 13.5358 45.7859 13.7936 45.6 14.0167C45.4141 14.2398 45.1858 14.4239 44.9284 14.5583C44.6709 14.6928 44.3894 14.7749 44.1 14.8C43.5481 14.8302 43.005 14.6515 42.5788 14.2994C42.1526 13.9474 41.8746 13.4478 41.8 12.9V12.4ZM45.1 12.4C45.1 11.5 44.7001 10.9 43.9001 10.9C43.1001 10.9 42.7001 11.5 42.7001 12.4C42.7001 13.3 43.2001 14 43.9001 14C44.6001 14 45.1 13.4 45.1 12.4ZM51.7001 14.7H50.8L49.9001 11.4H49.8L48.9001 14.7H47.9001L46.7001 10.2H47.6L48.4001 13.6H48.5L49.4001 10.2H50.3L51.2001 13.6H51.3L52.1 10.2H53L51.7001 14.7ZM54 10.2H54.9001V10.9C55.0417 10.6547 55.2459 10.4513 55.4919 10.3108C55.7379 10.1702 56.0168 10.0975 56.3 10.1C56.4971 10.0865 56.6949 10.1119 56.8821 10.175C57.0693 10.2381 57.2422 10.3375 57.3909 10.4676C57.5396 10.5977 57.6611 10.7559 57.7485 10.933C57.8358 11.1102 57.8873 11.3029 57.9001 11.5C57.9046 11.5542 57.8981 11.6088 57.881 11.6603C57.8638 11.7119 57.8362 11.7595 57.8 11.8V14.7H56.9001V12C56.9001 11.3 56.6 10.9 56 10.9C55.8606 10.886 55.7197 10.9015 55.5866 10.9454C55.4535 10.9894 55.3311 11.0608 55.2274 11.1551C55.1236 11.2494 55.0409 11.3644 54.9845 11.4928C54.9281 11.6211 54.8993 11.7599 54.9001 11.9V14.7H54V10.2ZM59.3 8.40004H60.2001V14.7H59.3V8.40004ZM61.4001 12.4C61.347 11.8431 61.5174 11.2879 61.8737 10.8565C62.23 10.4252 62.7431 10.1531 63.3 10.1C63.857 10.047 64.4122 10.2174 64.8436 10.5737C65.2749 10.93 65.547 11.4431 65.6 12C65.7 12.2 65.7 12.3 65.6 12.4C65.642 12.6838 65.6255 12.9731 65.5514 13.2501C65.4773 13.5272 65.3472 13.7862 65.1692 14.011C64.9912 14.2359 64.769 14.4219 64.5163 14.5576C64.2636 14.6933 63.9858 14.7758 63.7001 14.8C63.1481 14.8302 62.605 14.6515 62.1788 14.2994C61.7526 13.9474 61.4746 13.4478 61.4001 12.9V12.4ZM64.7 12.4C64.7 11.5 64.3 10.9 63.5 10.9C62.7001 10.9 62.3 11.5 62.3 12.4C62.3 13.3 62.7001 14 63.5 14C64.3 14 64.7 13.4 64.7 12.4ZM66.6 13.4C66.6 12.6 67.2001 12.1 68.3001 12.1H69.5V11.7C69.5 11.2 69.2 11 68.6 11C68.4025 10.9743 68.2018 11.0081 68.0236 11.0972C67.8455 11.1863 67.698 11.3266 67.6 11.5H66.8001C66.8736 11.0926 67.1022 10.7294 67.4378 10.487C67.7735 10.2446 68.1901 10.1417 68.6 10.2C69.7 10.2 70.4001 10.8 70.4001 11.7V14.8H69.5V14.2H69.4001C69.2555 14.4125 69.0619 14.5871 68.8356 14.709C68.6093 14.8308 68.357 14.8963 68.1 14.9C67.7441 14.929 67.3906 14.8209 67.1118 14.5979C66.8329 14.3748 66.6499 14.0536 66.6 13.7V13.4ZM69.5 13V12.7H68.4001C67.8001 12.8 67.5 13 67.5 13.4C67.5 13.8 67.8001 14 68.3001 14C68.439 14.0289 68.5824 14.0278 68.7209 13.9969C68.8594 13.966 68.9897 13.906 69.1032 13.8209C69.2167 13.7358 69.3108 13.6275 69.3792 13.5032C69.4476 13.3789 69.4888 13.2415 69.5 13.1V13ZM71.5 12.4C71.5 11 72.3001 10.1 73.4001 10.1C73.6833 10.0975 73.9622 10.1702 74.2082 10.3108C74.4542 10.4513 74.6584 10.6547 74.8001 10.9H74.9001V8.40004H75.8001V14.7H74.9001V14H74.8001C74.6671 14.2528 74.4647 14.4624 74.2167 14.6042C73.9687 14.7459 73.6854 14.8138 73.4001 14.8C72.3001 14.8 71.5 13.9 71.5 12.4ZM72.5 12.4C72.5 13.4 72.9 14 73.7 14C74.5 14 74.9001 13.4 74.9001 12.4C74.9001 11.4 74.4 10.9 73.7 10.9C73 10.9 72.5 11.5 72.5 12.4ZM79.6 8.90004C79.585 8.82655 79.5867 8.75063 79.6051 8.67789C79.6234 8.60515 79.6578 8.53747 79.7058 8.47984C79.7538 8.42222 79.8142 8.37614 79.8824 8.34502C79.9507 8.31389 80.0251 8.29852 80.1 8.30004C80.1735 8.28502 80.2495 8.28673 80.3222 8.30504C80.3949 8.32335 80.4626 8.35779 80.5202 8.40581C80.5779 8.45382 80.6239 8.51419 80.6551 8.58243C80.6862 8.65068 80.7016 8.72505 80.7 8.80004C80.702 8.94327 80.6527 9.08249 80.561 9.19253C80.4693 9.30258 80.3413 9.37618 80.2 9.40004H80.1C79.9674 9.40004 79.8403 9.34736 79.7465 9.25359C79.6527 9.15983 79.6 9.03265 79.6 8.90004ZM79.7 10.2H80.6V14.7H79.7V10.2ZM82 10.2H82.9001V10.9C83.0417 10.6547 83.2459 10.4513 83.4919 10.3108C83.7379 10.1702 84.0168 10.0975 84.3001 10.1C84.4971 10.0865 84.6949 10.1119 84.8821 10.175C85.0693 10.2381 85.2422 10.3375 85.3909 10.4676C85.5396 10.5977 85.6611 10.7559 85.7485 10.933C85.8358 11.1102 85.8873 11.3029 85.9001 11.5V14.7H85V12C85.0141 11.8606 84.9986 11.7197 84.9547 11.5866C84.9107 11.4535 84.8393 11.3311 84.745 11.2274C84.6507 11.1236 84.5357 11.0409 84.4073 10.9845C84.279 10.9281 84.1402 10.8993 84 10.9C83.8606 10.886 83.7197 10.9015 83.5866 10.9454C83.4535 10.9894 83.3311 11.0608 83.2274 11.1551C83.1236 11.2494 83.0409 11.3644 82.9845 11.4928C82.9281 11.6211 82.8993 11.7599 82.9001 11.9V14.7H82V10.2ZM89.5 12.4C89.5 11 90.2001 10.1 91.3001 10.1C91.5833 10.0975 91.8622 10.1702 92.1082 10.3108C92.3542 10.4513 92.5584 10.6547 92.7 10.9H92.8001V8.40004H93.7V14.7H92.8001V14C92.6353 14.2466 92.4121 14.4487 92.1504 14.5883C91.8888 14.7278 91.5966 14.8006 91.3001 14.8C90.2001 14.8 89.5 13.9 89.5 12.4ZM90.4001 12.4C90.4001 13.4 90.8 14 91.6 14C92.4 14 92.8001 13.4 92.8001 12.4C92.8001 11.4 92.3 10.9 91.6 10.9C90.9 10.9 90.4001 11.5 90.4001 12.4ZM99 13.5C98.8505 13.9028 98.5753 14.2467 98.2151 14.4808C97.8549 14.715 97.4288 14.8269 97 14.8C96.46 14.8007 95.9405 14.5932 95.5494 14.2207C95.1583 13.8483 94.9258 13.3395 94.9001 12.8V12.5C94.8407 11.9465 94.9935 11.391 95.3275 10.9456C95.6616 10.5003 96.152 10.1981 96.7 10.1H97C98.3 10.1 99 11 99 12.4V12.7H95.8001C95.7864 12.8577 95.804 13.0166 95.852 13.1674C95.8999 13.3183 95.9772 13.4581 96.0795 13.579C96.1817 13.6998 96.3069 13.7992 96.4477 13.8715C96.5885 13.9438 96.7423 13.9874 96.9001 14H97C97.2128 14.068 97.4431 14.0545 97.6464 13.9621C97.8497 13.8697 98.0114 13.705 98.1 13.5H99ZM95.8001 12H98.1C98.1141 11.8606 98.0986 11.7197 98.0547 11.5866C98.0107 11.4535 97.9393 11.3311 97.845 11.2274C97.7507 11.1236 97.6357 11.0409 97.5073 10.9845C97.379 10.9281 97.2402 10.8993 97.1 10.9H97C96.6984 10.899 96.4074 11.0116 96.185 11.2154C95.9626 11.4193 95.8252 11.6994 95.8001 12Z" fill="#FBFBFA"/>
</g>
<rect x="1.5" y="1.5" width="117" height="37" rx="6.5" stroke="#00271D" stroke-width="3"/>
<defs>
<clipPath id="clip0_9029_24314">
<rect width="120" height="40" rx="8" fill="white"/>
</clipPath>
</defs>
</svg>
